<?xml version="1.0" encoding="utf-8"?>
<!-- Generator: Adobe Illustrator 24.0.2, SVG Export Plug-In . SVG Version: 6.00 Build 0)  -->
<svg version="1.1" id="Layer_1" xmlns="http://www.w3.org/2000/svg" xmlns:xlink="http://www.w3.org/1999/xlink" x="0px" y="0px"
	 viewBox="0 0 24 24" style="enable-background:new 0 0 24 24;" xml:space="preserve">
<style type="text/css">
	.st0{fill:#FFFFFF;}
</style>
<path class="st0" d="M5.8,15c0.1,0,0.3,0,0.4,0.1c1,0.6,2.1,0.9,3.3,0.9c3.6,0,6.5-2.9,6.5-6.5S13.1,3,9.5,3S3,5.9,3,9.5
	c0,1.2,0.3,2.3,0.9,3.3C4,12.9,4,13.1,4,13.2l-0.7,2.6L5.8,15z M16.7,7.3c3.1,0.9,5.3,3.8,5.3,7.2c0,1.3-0.3,2.5-0.9,3.6l0.9,3.2
	c0.1,0.4-0.2,0.7-0.6,0.6l-3.2-0.9C17,21.7,15.8,22,14.5,22c-3.3,0-6.2-2.2-7.2-5.3c-0.5-0.2-1-0.4-1.5-0.6L2.6,17
	c-0.4,0.1-0.7-0.2-0.6-0.6l0.9-3.2C2.3,12,2,10.8,2,9.5C2,5.4,5.4,2,9.5,2C12.9,2,15.7,4.2,16.7,7.3L16.7,7.3z M16.9,8.5
	c0,0.3,0.1,0.7,0.1,1c0,4.1-3.4,7.5-7.5,7.5c-0.3,0-0.7,0-1-0.1c1,2.4,3.3,4.1,6,4.1c1.2,0,2.3-0.3,3.3-0.9c0.1-0.1,0.3-0.1,0.4-0.1
	l2.6,0.7L20,18.2c0-0.1,0-0.3,0.1-0.4c0.6-1,0.9-2.1,0.9-3.3C21,11.8,19.3,9.4,16.9,8.5L16.9,8.5z"/>
</svg>
